<svg xmlns="http://www.w3.org/2000/svg" version="1.1" xmlns:xlink="http://www.w3.org/1999/xlink" xmlns:svgjs="http://svgjs.dev/svgjs" width="1000" height="1000" viewBox="0 0 1000 1000"><rect width="1000" height="1000" fill="#000000"></rect><g transform="matrix(0.7,0,0,0.7,149.4736058762545,224.07360588869312)"><svg viewBox="0 0 313 247" data-background-color="#ffffff" preserveAspectRatio="xMidYMid meet" height="789" width="1000" xmlns="http://www.w3.org/2000/svg" xmlns:xlink="http://www.w3.org/1999/xlink"><g id="tight-bounds" transform="matrix(1,0,0,1,0.23537349384096728,-0.10000075664376595)"><svg viewBox="0 0 312.5292531336842 247.2" height="247.2" width="312.5292531336842"><g><svg viewBox="0 0 395.52 312.84285557159615" height="247.2" width="312.5292531336842"><g transform="matrix(1,0,0,1,0,193.34943537615638)"><svg viewBox="0 0 395.52 119.49342019543974" height="119.49342019543974" width="395.52"><g id="textblocktransform"><svg viewBox="0 0 395.52 119.49342019543974" height="119.49342019543974" width="395.52" id="textblock"><g><svg viewBox="0 0 395.52 119.49342019543974" height="119.49342019543974" width="395.52"><g transform="matrix(1,0,0,1,0,0)"><svg width="395.52" viewBox="1.7000000476837158 -36.79999923706055 122.79000091552734 37.099998474121094" height="119.49342019543974" data-palette-color="#89939e"><path d="M5.8 0L1.7 0 14.3-36.8 19.4-36.8 32 0 27.9 0 24.2-10.5 9.4-10.5 5.8 0ZM16.85-33.3L10.4-14.1 23.2-14.1 16.85-33.3ZM49.1 0.3L49.1 0.3Q46 0.3 43.5-0.25 41-0.8 39.22-2.13 37.45-3.45 36.5-5.73 35.55-8 35.55-11.4L35.55-11.4 35.55-36.8 39.55-36.8 39.55-11.4Q39.55-8.25 40.67-6.5 41.8-4.75 43.95-4.03 46.1-3.3 49.1-3.3L49.1-3.3Q52.1-3.3 54.25-4.03 56.4-4.75 57.52-6.5 58.65-8.25 58.65-11.4L58.65-11.4 58.65-36.8 62.65-36.8 62.65-11.4Q62.65-8 61.7-5.73 60.75-3.45 58.97-2.13 57.2-0.8 54.7-0.25 52.2 0.3 49.1 0.3ZM82.15 0L78.15 0 78.15-33.2 66.8-33.2 66.8-36.8 93.5-36.8 93.5-33.2 82.15-33.2 82.15 0ZM102.14 0L98.14 0 98.14-36.8 102.14-36.8 102.14-19.75 120.54-19.75 120.54-36.8 124.49-36.8 124.49 0 120.54 0 120.54-16.15 102.14-16.15 102.14 0Z" opacity="1" transform="matrix(1,0,0,1,0,0)" fill="#ffffff" class="wordmark-text-0" data-fill-palette-color="primary" id="text-0"></path></svg></g></svg></g></svg></g></svg></g><g transform="matrix(1,0,0,1,128.78690191131756,0)"><svg viewBox="0 0 137.9461961773649 165.13990671009773" height="165.13990671009773" width="137.9461961773649"><g><svg xmlns="http://www.w3.org/2000/svg" xmlns:xlink="http://www.w3.org/1999/xlink" version="1.1" x="8" y="0" viewBox="22.54399871826172 12.819000244140625 54.91200256347656 74.36199951171875" enable-background="new 0 0 100 100" xml:space="preserve" height="165.13990671009773" width="121.9461961773649" class="icon-icon-0" data-fill-palette-color="accent" id="icon-0"><path d="M67.02 87.181H32.98c-5.754 0-10.436-4.682-10.436-10.436V52.747c0-5.754 4.682-10.436 10.436-10.436h34.04c5.754 0 10.436 4.682 10.436 10.436v23.999C77.456 82.5 72.774 87.181 67.02 87.181zM32.98 45.311c-4.1 0-7.436 3.336-7.436 7.436v23.999c0 4.1 3.336 7.436 7.436 7.436h34.04c4.1 0 7.436-3.336 7.436-7.436V52.747c0-4.1-3.336-7.436-7.436-7.436H32.98z" fill="#ffffff" data-fill-palette-color="accent"></path><polygon points="46.547,71.742 38.187,63.381 40.308,61.26 46.547,67.5 59.692,54.355 61.813,56.476 " fill="#ffffff" data-fill-palette-color="accent"></polygon><path d="M40.644 44.583h-3v-9.862c0-6.813 5.543-12.356 12.355-12.356 6.813 0 12.356 5.543 12.356 12.356v9.807h-3v-9.807c0-5.159-4.197-9.356-9.356-9.356-5.158 0-9.355 4.197-9.355 9.356V44.583z" fill="#ffffff" data-fill-palette-color="accent"></path><path d="M71.902 44.583h-3v-9.862c0-10.423-8.479-18.902-18.902-18.902s-18.902 8.479-18.902 18.902v9.862h-3v-9.862c0-12.077 9.825-21.902 21.902-21.902s21.902 9.825 21.902 21.902V44.583z" fill="#ffffff" data-fill-palette-color="accent"></path></svg></g></svg></g><g><rect width="87.29152847815966" height="10.776039950434399" y="153.36386675966332" x="266.7330980886825" fill="#ffffff" data-fill-palette-color="accent"></rect><rect width="87.29152847815966" height="10.776039950434399" y="153.36386675966332" x="41.49537343315788" fill="#ffffff" data-fill-palette-color="accent"></rect><rect width="87.29152847815966" height="10.776039950434399" y="131.81178685879453" x="266.7330980886825" fill="#ffffff" data-fill-palette-color="accent"></rect><rect width="87.29152847815966" height="10.776039950434399" y="131.81178685879453" x="41.49537343315788" fill="#ffffff" data-fill-palette-color="accent"></rect></g></svg></g><defs></defs></svg><rect width="312.5292531336842" height="247.2" fill="none" stroke="none" visibility="hidden"></rect></g></svg></g></svg>